# xmcd
#
# Track frame offsets: 
#        150
#        16322
#        28980
#        51112
#        63190
#        78373
#        95649
#        114958
#        130380
#        151198
#        164560
#        184261
#        204684
#        225273
#        240240
#        252560
#        274712
#        297376
#
# Disc length: 4282 seconds
#
# Revision: 0
# Processed by: cddbd v1.5.2PL0 Copyright (c) Steve Scherf et al.
# Submitted via: ExactAudioCopyFreeDBPlugin 1.0
#
DISCID=f610b812
DTITLE=和田アキ子 - THE LEGEND OF SOUL
DYEAR=2017
DGENRE=Pop
TTITLE0=あの鐘を鳴らすのはあなた
TTITLE1=古い日記
TTITLE2=もう一度ふたりで歌いたい
TTITLE3=笑って許して
TTITLE4=コーラスガール
TTITLE5=抱擁
TTITLE6=だってしょうがないじゃない
TTITLE7=星空の孤独
TTITLE8=夢
TTITLE9=どしゃぶりの雨の中で
TTITLE10=今あなたにうたいたい
TTITLE11=Mother
TTITLE12=抱かれ上手
TTITLE13=真夏の夜の23時
TTITLE14=さあ冒険だ
TTITLE15=愛の光
TTITLE16=幸せのちから
TTITLE17=また明日も歌いましょう
EXTD=
EXTT0=
EXTT1=
EXTT2=
EXTT3=
EXTT4=
EXTT5=
EXTT6=
EXTT7=
EXTT8=
EXTT9=
EXTT10=
EXTT11=
EXTT12=
EXTT13=
EXTT14=
EXTT15=
EXTT16=
EXTT17=
PLAYORDER=
